<?xml version="1.0" standalone="no"?>
<!DOCTYPE svg PUBLIC "-//W3C//DTD SVG 20010904//EN" "http://www.w3.org/TR/2001/REC-SVG-20010904/DTD/svg10.dtd">
<!-- Created using Karbon, part of Calligra: http://www.calligra.org/karbon -->
<svg xmlns="http://www.w3.org/2000/svg" xmlns:xlink="http://www.w3.org/1999/xlink" width="38.4pt" height="38.4pt">
<defs/>
<g id="layer0">
  <path id="path4062" transform="matrix(1 0 0 1 0.547153 0.305553)" fill="#231f20" d="M41.5806 47.219C44.696 47.219 47.2285 44.6915 47.2285 41.5764L47.2285 5.6378C47.2285 2.52268 44.696 0 41.5806 0L5.64793 0C2.52771 0 0 2.52268 0 5.6378L0 41.5764C0 44.6915 2.52771 47.219 5.64793 47.219Z"/>
  <path id="path4060" transform="matrix(1 0 0 1 1.50303 1.26621)" fill="#fdfbfc" d="M4.69027 0C2.10155 0 0 2.09655 0 4.67545L0 40.5986C0 43.1822 2.10155 45.2835 4.69027 45.2835L40.6076 45.2835C43.1916 45.2835 45.2931 43.1822 45.2931 40.5986L45.2931 4.67545C45.2931 2.09655 43.1916 0 40.6076 0Z"/>
 </g><g id="layer1">
  <g id="svg_1" transform="translate(68.625, 50.4003)" fill="none">
   <path id="svg_16" transform="translate(-62.5288, -42.3027)" fill="#000000" fill-rule="evenodd" d="M11.1723 38.6455L11.1723 20.6025C10.1255 21.7997 9.14565 22.801 8.21492 23.6243C7.2795 24.4344 6.56256 25.1108 5.60041 25.4981C4.60288 25.8854 3.21329 26.2547 2.37597 25.9031C1.53853 25.5202 1.00419 24.8082 0.634526 23.2861C0.269313 21.7373 0.198051 18.7107 0.162545 16.7791C0.104523 14.8343 -0.269475 12.7737 0.362842 11.8167C0.999739 10.8642 3.2222 10.6862 3.92144 11.1446C4.59855 11.6075 4.33132 13.1251 4.46048 14.5672C4.57628 16.0136 4.64296 17.7005 4.66078 19.7299C5.39553 18.9732 6.16184 18.2301 7.00806 17.4512C7.85429 16.6679 8.58904 15.5775 9.69359 15.1057C10.7848 14.6339 12.1565 14.4826 13.5194 14.6339C14.8778 14.7852 16.3432 15.9468 17.7461 15.9735C19.1356 15.9691 20.5431 15.0879 21.7768 14.7007C22.9794 14.3179 23.7142 15.2081 24.9969 13.6948C26.284 12.1549 28.1948 7.80216 29.4239 5.58128C30.6265 3.3426 31.2277 1.21963 32.2433 0.414063C33.2542 -0.373702 35.0269 0.0758129 35.4677 0.819072C35.882 1.54008 36.0066 2.17208 34.7951 4.77571C33.5615 7.39715 29.8737 13.7705 28.2169 16.3786C26.5556 18.9511 25.4822 20.2194 24.9299 20.2018L24.9299 38.6453C20.347 38.6455 15.7595 38.6455 11.1723 38.6455Z"/>
   <path id="svg_17" transform="translate(-49.3552, -39.8853)" fill="#000000" fill-rule="evenodd" d="M5.39318 2.19546e-15C8.37024 2.19546e-15 10.7864 2.42011 10.7864 5.40214C10.7864 8.38404 8.37024 10.8043 5.39318 10.8043C2.41624 10.8043 1.06699e-12 8.38404 1.06699e-12 5.40214C-1.86486e-06 2.42011 2.41624 0 5.39318 0"/>
   <path id="svg_18" transform="translate(-65.2497, -29.7506)" fill="#000000" fill-rule="evenodd" d="M0 0L0 0.950829L8.75986 0.950829L8.75986 0Z"/>
   <path id="svg_19" transform="translate(-57.2054, -32.4336)" fill="#000000" fill-rule="evenodd" d="M1.12268 0C0.504528 0 0 0.488767 0 1.09305C0 2.41716 0 3.74126 0 5.06537C0 5.66966 0.504528 6.16287 1.12268 6.16287C1.28631 6.16287 1.45449 6.16287 1.62266 6.16287C2.24081 6.16287 2.74079 5.66966 2.74079 5.06537C2.74079 3.74126 2.74079 2.41716 2.74079 1.09305C2.74079 0.488765 2.24081 0 1.62266 0C1.45449 0 1.28631 0 1.12268 0Z"/>
   <path id="svg_20" transform="translate(-65.9884, -32.4336)" fill="#000000" fill-rule="evenodd" d="M1.1228 0C0.504651 0 0 0.488767 0 1.09305C0 2.41716 0 3.74126 0 5.06537C0 5.66966 0.504524 6.16287 1.1228 6.16287C1.28631 6.16287 1.45448 6.16287 1.62266 6.16287C2.24081 6.16287 2.74079 5.66966 2.74079 5.06537C2.74079 3.74126 2.74079 2.41716 2.74079 1.09305C2.74079 0.488765 2.24081 0 1.62266 0C1.45448 0 1.28631 0 1.1228 0Z"/>
   <path id="svg_21" transform="translate(-33.8773, -42.2222)" fill="#000000" fill-rule="evenodd" d="M0.371135 9.91572e-07L0 0.865644L8.01295 4.35052L8.38421 3.48488L0.371135 0Z"/>
   <path id="svg_22" transform="translate(-27.1508, -41.1578)" fill="#000000" fill-rule="evenodd" d="M3.1349 0.088211C2.57284 -0.148098 1.92085 0.106045 1.67804 0.663375C1.15196 1.88505 0.621377 3.10226 0.0907912 4.32392C-0.151893 4.88125 0.108905 5.52776 0.670963 5.76852C0.819347 5.83095 0.972226 5.89782 1.12511 5.96025C1.68716 6.20101 2.33915 5.94241 2.57746 5.38508C3.10805 4.16787 3.63863 2.9462 4.16922 1.72899C4.41203 1.17166 4.15123 0.525158 3.58917 0.284392C3.44066 0.217512 3.28791 0.15509 3.1349 0.088211Z"/>
   <path id="svg_23" transform="translate(-35.2176, -44.6309)" fill="#000000" fill-rule="evenodd" d="M3.13498 0.0907956C2.57292 -0.149901 1.92093 0.104168 1.67812 0.661335C1.15203 1.88265 0.62145 3.09949 0.0908647 4.32081C-0.151945 4.87798 0.108852 5.52428 0.670912 5.76499C0.819294 5.82739 0.972174 5.89424 1.12518 5.95664C1.68724 6.19734 2.33923 5.93881 2.57754 5.38612C3.10813 4.16481 3.63871 2.9435 4.16929 1.72664C4.41198 1.16947 4.15118 0.523156 3.58912 0.28246C3.44087 0.220058 3.28786 0.153198 3.13498 0.0907956Z"/>
  </g>
 </g>
</svg>
